<svg xmlns="http://www.w3.org/2000/svg" width="1200" height="630" viewBox="0 0 1200 630" role="img" aria-labelledby="t d">
<defs>
  <linearGradient id="bg" x1="0" x2="1"><stop stop-color="#081522"/><stop offset="1" stop-color="#0d2a3d"/></linearGradient>
  <filter id="sh"><feDropShadow dx="0" dy="8" stdDeviation="10" flood-opacity=".25"/></filter>
</defs>
<rect width="100%" height="100%" rx="28" fill="url(#bg)"/>
<text id="t" x="60" y="72" font-family="Arial, sans-serif" font-size="34" font-weight="700" fill="#edf7ff">Integration delivery lifecycle</text>
<text id="d" x="60" y="108" font-family="Arial, sans-serif" font-size="17" fill="#9fb6c8">Business ownership and acceptance are part of the architecture.</text>
<rect x="55.0" y="245" width="198.8" height="150" rx="18" fill="#10283b" stroke="#2e5269" filter="url(#sh)"/>
<circle cx="83.0" cy="273" r="15" fill="#173d52"/><text x="83.0" y="279" text-anchor="middle" font-family="Arial" font-size="14" font-weight="700" fill="#4ed9e7">1</text>
<text x="154.4" y="310" text-anchor="middle" font-family="Arial" font-size="16" font-weight="700" fill="#edf7ff">Map process</text>
<text x="154.4" y="373" text-anchor="middle" font-family="Arial" font-size="12" fill="#9fb6c8">owner + decision</text>
<path d="M 259.8 320 L 272.8 320" stroke="#4ed9e7" stroke-width="3"/><path d="M 268.8 314 L 275.8 320 L 268.8 326" fill="none" stroke="#4ed9e7" stroke-width="3"/>
<rect x="277.8" y="245" width="198.8" height="150" rx="18" fill="#10283b" stroke="#2e5269" filter="url(#sh)"/>
<circle cx="305.8" cy="273" r="15" fill="#173d52"/><text x="305.8" y="279" text-anchor="middle" font-family="Arial" font-size="14" font-weight="700" fill="#4ed9e7">2</text>
<text x="377.2" y="310" text-anchor="middle" font-family="Arial" font-size="16" font-weight="700" fill="#edf7ff">Contract data</text>
<text x="377.2" y="373" text-anchor="middle" font-family="Arial" font-size="12" fill="#9fb6c8">API + mapping</text>
<path d="M 482.6 320 L 495.6 320" stroke="#4ed9e7" stroke-width="3"/><path d="M 491.6 314 L 498.6 320 L 491.6 326" fill="none" stroke="#4ed9e7" stroke-width="3"/>
<rect x="500.6" y="245" width="198.8" height="150" rx="18" fill="#10283b" stroke="#2e5269" filter="url(#sh)"/>
<circle cx="528.6" cy="273" r="15" fill="#173d52"/><text x="528.6" y="279" text-anchor="middle" font-family="Arial" font-size="14" font-weight="700" fill="#4ed9e7">3</text>
<text x="600.0" y="310" text-anchor="middle" font-family="Arial" font-size="16" font-weight="700" fill="#edf7ff">Build &amp; observe</text>
<text x="600.0" y="373" text-anchor="middle" font-family="Arial" font-size="12" fill="#9fb6c8">log + retry</text>
<path d="M 705.4 320 L 718.4 320" stroke="#4ed9e7" stroke-width="3"/><path d="M 714.4 314 L 721.4 320 L 714.4 326" fill="none" stroke="#4ed9e7" stroke-width="3"/>
<rect x="723.4" y="245" width="198.8" height="150" rx="18" fill="#10283b" stroke="#2e5269" filter="url(#sh)"/>
<circle cx="751.4" cy="273" r="15" fill="#173d52"/><text x="751.4" y="279" text-anchor="middle" font-family="Arial" font-size="14" font-weight="700" fill="#4ed9e7">4</text>
<text x="822.8" y="310" text-anchor="middle" font-family="Arial" font-size="16" font-weight="700" fill="#edf7ff">SIT / UAT</text>
<text x="822.8" y="373" text-anchor="middle" font-family="Arial" font-size="12" fill="#9fb6c8">end-to-end proof</text>
<path d="M 928.2 320 L 941.2 320" stroke="#4ed9e7" stroke-width="3"/><path d="M 937.2 314 L 944.2 320 L 937.2 326" fill="none" stroke="#4ed9e7" stroke-width="3"/>
<rect x="946.2" y="245" width="198.8" height="150" rx="18" fill="#10283b" stroke="#2e5269" filter="url(#sh)"/>
<circle cx="974.2" cy="273" r="15" fill="#173d52"/><text x="974.2" y="279" text-anchor="middle" font-family="Arial" font-size="14" font-weight="700" fill="#4ed9e7">5</text>
<text x="1045.6" y="310" text-anchor="middle" font-family="Arial" font-size="16" font-weight="700" fill="#edf7ff">Go-live</text>
<text x="1045.6" y="373" text-anchor="middle" font-family="Arial" font-size="12" fill="#9fb6c8">rollback + monitor</text>
</svg>