<svg xmlns="http://www.w3.org/2000/svg" viewBox="0 0 33 33" shape-rendering="crispEdges"><rect width="100%" height="100%" fill="white"/><path d="M2 2h7v1H2zM11 2h3v1H11zM15 2h1v1H15zM20 2h1v1H20zM22 2h1v1H22zM24 2h7v1H24zM2 3h1v1H2zM8 3h1v1H8zM13 3h3v1H13zM18 3h2v1H18zM22 3h1v1H22zM24 3h1v1H24zM30 3h1v1H30zM2 4h1v1H2zM4 4h3v1H4zM8 4h1v1H8zM11 4h3v1H11zM17 4h1v1H17zM20 4h1v1H20zM24 4h1v1H24zM26 4h3v1H26zM30 4h1v1H30zM2 5h1v1H2zM4 5h3v1H4zM8 5h1v1H8zM10 5h1v1H10zM12 5h2v1H12zM15 5h1v1H15zM18 5h2v1H18zM22 5h1v1H22zM24 5h1v1H24zM26 5h3v1H26zM30 5h1v1H30zM2 6h1v1H2zM4 6h3v1H4zM8 6h1v1H8zM10 6h1v1H10zM12 6h1v1H12zM14 6h1v1H14zM18 6h1v1H18zM21 6h2v1H21zM24 6h1v1H24zM26 6h3v1H26zM30 6h1v1H30zM2 7h1v1H2zM8 7h1v1H8zM11 7h2v1H11zM16 7h1v1H16zM18 7h2v1H18zM22 7h1v1H22zM24 7h1v1H24zM30 7h1v1H30zM2 8h7v1H2zM10 8h1v1H10zM12 8h1v1H12zM14 8h1v1H14zM16 8h1v1H16zM18 8h1v1H18zM20 8h1v1H20zM22 8h1v1H22zM24 8h7v1H24zM11 9h1v1H11zM14 9h1v1H14zM17 9h1v1H17zM20 9h1v1H20zM22 9h1v1H22zM2 10h2v1H2zM7 10h3v1H7zM11 10h2v1H11zM14 10h2v1H14zM17 10h1v1H17zM19 10h1v1H19zM21 10h1v1H21zM26 10h2v1H26zM2 11h3v1H2zM12 11h1v1H12zM15 11h3v1H15zM20 11h2v1H20zM25 11h2v1H25zM28 11h2v1H28zM3 12h1v1H3zM6 12h1v1H6zM8 12h2v1H8zM11 12h1v1H11zM13 12h6v1H13zM22 12h1v1H22zM24 12h3v1H24zM5 13h1v1H5zM9 13h2v1H9zM12 13h2v1H12zM17 13h2v1H17zM23 13h3v1H23zM27 13h1v1H27zM2 14h1v1H2zM5 14h1v1H5zM7 14h2v1H7zM10 14h3v1H10zM18 14h1v1H18zM21 14h2v1H21zM24 14h2v1H24zM30 14h1v1H30zM2 15h2v1H2zM5 15h2v1H5zM10 15h1v1H10zM12 15h1v1H12zM14 15h2v1H14zM17 15h1v1H17zM21 15h6v1H21zM29 15h2v1H29zM2 16h4v1H2zM7 16h2v1H7zM17 16h1v1H17zM19 16h2v1H19zM26 16h3v1H26zM2 17h2v1H2zM5 17h2v1H5zM9 17h1v1H9zM12 17h1v1H12zM14 17h1v1H14zM16 17h1v1H16zM18 17h1v1H18zM20 17h1v1H20zM23 17h2v1H23zM28 17h1v1H28zM30 17h1v1H30zM2 18h3v1H2zM7 18h3v1H7zM14 18h6v1H14zM21 18h1v1H21zM27 18h2v1H27zM2 19h2v1H2zM5 19h1v1H5zM7 19h1v1H7zM10 19h3v1H10zM16 19h3v1H16zM20 19h3v1H20zM24 19h3v1H24zM28 19h3v1H28zM2 20h3v1H2zM6 20h3v1H6zM10 20h3v1H10zM14 20h2v1H14zM17 20h2v1H17zM20 20h2v1H20zM24 20h1v1H24zM26 20h2v1H26zM30 20h1v1H30zM2 21h1v1H2zM4 21h1v1H4zM7 21h1v1H7zM10 21h1v1H10zM12 21h2v1H12zM26 21h1v1H26zM2 22h1v1H2zM4 22h6v1H4zM13 22h1v1H13zM15 22h5v1H15zM22 22h5v1H22zM28 22h3v1H28zM10 23h1v1H10zM14 23h4v1H14zM20 23h1v1H20zM22 23h1v1H22zM26 23h2v1H26zM2 24h7v1H2zM10 24h1v1H10zM12 24h1v1H12zM16 24h3v1H16zM21 24h2v1H21zM24 24h1v1H24zM26 24h3v1H26zM2 25h1v1H2zM8 25h1v1H8zM10 25h3v1H10zM14 25h1v1H14zM16 25h1v1H16zM21 25h2v1H21zM26 25h1v1H26zM29 25h2v1H29zM2 26h1v1H2zM4 26h3v1H4zM8 26h1v1H8zM11 26h4v1H11zM17 26h2v1H17zM21 26h7v1H21zM29 26h1v1H29zM2 27h1v1H2zM4 27h3v1H4zM8 27h1v1H8zM12 27h1v1H12zM15 27h1v1H15zM17 27h6v1H17zM27 27h2v1H27zM30 27h1v1H30zM2 28h1v1H2zM4 28h3v1H4zM8 28h1v1H8zM12 28h3v1H12zM16 28h2v1H16zM23 28h7v1H23zM2 29h1v1H2zM8 29h1v1H8zM10 29h1v1H10zM12 29h2v1H12zM16 29h2v1H16zM20 29h2v1H20zM23 29h1v1H23zM25 29h4v1H25zM30 29h1v1H30zM2 30h7v1H2zM10 30h5v1H10zM19 30h3v1H19zM25 30h1v1H25zM28 30h1v1H28z" fill="black"/></svg>