<svg xmlns="http://www.w3.org/2000/svg" viewBox="0 0 1200 675" role="img" aria-label="DAF Private-Sector Payment Integration visual">
    <defs>
      <linearGradient id="g" x1="0" y1="0" x2="1" y2="1"><stop offset="0" stop-color="#ffffff"/><stop offset="1" stop-color="#3b82f6" stop-opacity=".12"/></linearGradient>
      <filter id="s" x="-20%" y="-20%" width="140%" height="140%"><feDropShadow dx="0" dy="14" stdDeviation="18" flood-color="#0f172a" flood-opacity=".10"/></filter>
      <pattern id="dots" width="28" height="28" patternUnits="userSpaceOnUse"><circle cx="2" cy="2" r="2" fill="#3b82f6" opacity=".10"/></pattern>
    </defs>
    <rect width="1200" height="675" fill="#eef6ff"/>
    <rect width="1200" height="675" fill="url(#dots)"/>
    <circle cx="1040" cy="100" r="220" fill="#3b82f6" opacity=".08"/><circle cx="100" cy="580" r="180" fill="#06b6d4" opacity=".08"/>
    <path d="M 174 151 C 264 111, 199 274, 289 234" fill="none" stroke="#3b82f6" stroke-width="8" stroke-linecap="round" opacity=".28"/><path d="M 289 234 C 379 194, 370 238, 460 198" fill="none" stroke="#3b82f6" stroke-width="8" stroke-linecap="round" opacity=".28"/><path d="M 460 198 C 550 158, 521 319, 611 279" fill="none" stroke="#3b82f6" stroke-width="8" stroke-linecap="round" opacity=".28"/><path d="M 611 279 C 701 239, 744 226, 834 186" fill="none" stroke="#3b82f6" stroke-width="8" stroke-linecap="round" opacity=".28"/><path d="M 834 186 C 924 146, 845 244, 935 204" fill="none" stroke="#3b82f6" stroke-width="8" stroke-linecap="round" opacity=".28"/><circle cx="174" cy="151" r="18" fill="#fff" stroke="#3b82f6" stroke-width="7" filter="url(#s)"/><circle cx="289" cy="234" r="25" fill="#fff" stroke="#06b6d4" stroke-width="7" filter="url(#s)"/><circle cx="460" cy="198" r="18" fill="#fff" stroke="#3b82f6" stroke-width="7" filter="url(#s)"/><circle cx="611" cy="279" r="25" fill="#fff" stroke="#06b6d4" stroke-width="7" filter="url(#s)"/><circle cx="834" cy="186" r="18" fill="#fff" stroke="#3b82f6" stroke-width="7" filter="url(#s)"/><circle cx="935" cy="204" r="25" fill="#fff" stroke="#06b6d4" stroke-width="7" filter="url(#s)"/><rect x="500" y="235" width="200" height="200" rx="40" fill="#fff" filter="url(#s)"/><path d="M540 300h120M540 350h85M540 400h135" stroke="#0f172a" stroke-width="12" stroke-linecap="round"/><circle cx="675" cy="300" r="15" fill="#3b82f6"/><text x="78" y="600" font-family="Arial, sans-serif" font-size="96" font-weight="800" fill="#0f172a" opacity=".07">25</text>
    </svg>