<svg xmlns="http://www.w3.org/2000/svg" viewBox="0 0 1200 675" role="img" aria-label="UPA Delivery Mobile App visual">
    <defs>
      <linearGradient id="g" x1="0" y1="0" x2="1" y2="1"><stop offset="0" stop-color="#ffffff"/><stop offset="1" stop-color="#f59e0b" stop-opacity=".12"/></linearGradient>
      <filter id="s" x="-20%" y="-20%" width="140%" height="140%"><feDropShadow dx="0" dy="14" stdDeviation="18" flood-color="#0f172a" flood-opacity=".10"/></filter>
      <pattern id="dots" width="28" height="28" patternUnits="userSpaceOnUse"><circle cx="2" cy="2" r="2" fill="#f59e0b" opacity=".10"/></pattern>
    </defs>
    <rect width="1200" height="675" fill="#fff8eb"/>
    <rect width="1200" height="675" fill="url(#dots)"/>
    <circle cx="1040" cy="100" r="220" fill="#f59e0b" opacity=".08"/><circle cx="100" cy="580" r="180" fill="#06b6d4" opacity=".08"/>
    <path d="M 126 218 C 216 178, 231 178, 321 138" fill="none" stroke="#f59e0b" stroke-width="8" stroke-linecap="round" opacity=".28"/><path d="M 321 138 C 411 98, 402 201, 492 161" fill="none" stroke="#f59e0b" stroke-width="8" stroke-linecap="round" opacity=".28"/><path d="M 492 161 C 582 121, 585 269, 675 229" fill="none" stroke="#f59e0b" stroke-width="8" stroke-linecap="round" opacity=".28"/><path d="M 675 229 C 765 189, 705 304, 795 264" fill="none" stroke="#f59e0b" stroke-width="8" stroke-linecap="round" opacity=".28"/><path d="M 795 264 C 885 224, 867 331, 957 291" fill="none" stroke="#f59e0b" stroke-width="8" stroke-linecap="round" opacity=".28"/><circle cx="126" cy="218" r="18" fill="#fff" stroke="#f59e0b" stroke-width="7" filter="url(#s)"/><circle cx="321" cy="138" r="25" fill="#fff" stroke="#06b6d4" stroke-width="7" filter="url(#s)"/><circle cx="492" cy="161" r="18" fill="#fff" stroke="#f59e0b" stroke-width="7" filter="url(#s)"/><circle cx="675" cy="229" r="25" fill="#fff" stroke="#06b6d4" stroke-width="7" filter="url(#s)"/><circle cx="795" cy="264" r="18" fill="#fff" stroke="#f59e0b" stroke-width="7" filter="url(#s)"/><circle cx="957" cy="291" r="25" fill="#fff" stroke="#06b6d4" stroke-width="7" filter="url(#s)"/><rect x="475" y="230" width="250" height="210" rx="34" fill="#fff" filter="url(#s)"/><path d="M520 300h160v110H520z" fill="#f59e0b" opacity=".16" stroke="#f59e0b" stroke-width="8"/><path d="M545 300v-45h110v45M560 340h80M560 375h80" fill="none" stroke="#0f172a" stroke-width="10" stroke-linecap="round"/><text x="78" y="600" font-family="Arial, sans-serif" font-size="96" font-weight="800" fill="#0f172a" opacity=".07">39</text>
    </svg>