<svg xmlns="http://www.w3.org/2000/svg" viewBox="0 0 1200 675" role="img" aria-label="HR / Attendance System visual">
    <defs>
      <linearGradient id="g" x1="0" y1="0" x2="1" y2="1"><stop offset="0" stop-color="#ffffff"/><stop offset="1" stop-color="#0ea5e9" stop-opacity=".12"/></linearGradient>
      <filter id="s" x="-20%" y="-20%" width="140%" height="140%"><feDropShadow dx="0" dy="14" stdDeviation="18" flood-color="#0f172a" flood-opacity=".10"/></filter>
      <pattern id="dots" width="28" height="28" patternUnits="userSpaceOnUse"><circle cx="2" cy="2" r="2" fill="#0ea5e9" opacity=".10"/></pattern>
    </defs>
    <rect width="1200" height="675" fill="#f8fafc"/>
    <rect width="1200" height="675" fill="url(#dots)"/>
    <circle cx="1040" cy="100" r="220" fill="#0ea5e9" opacity=".08"/><circle cx="100" cy="580" r="180" fill="#14b8a6" opacity=".08"/>
    <path d="M 140 340 C 230 300, 258 360, 348 320" fill="none" stroke="#0ea5e9" stroke-width="8" stroke-linecap="round" opacity=".28"/><path d="M 348 320 C 438 280, 420 282, 510 242" fill="none" stroke="#0ea5e9" stroke-width="8" stroke-linecap="round" opacity=".28"/><path d="M 510 242 C 600 202, 552 234, 642 194" fill="none" stroke="#0ea5e9" stroke-width="8" stroke-linecap="round" opacity=".28"/><path d="M 642 194 C 732 154, 726 319, 816 279" fill="none" stroke="#0ea5e9" stroke-width="8" stroke-linecap="round" opacity=".28"/><path d="M 816 279 C 906 239, 839 197, 929 157" fill="none" stroke="#0ea5e9" stroke-width="8" stroke-linecap="round" opacity=".28"/><circle cx="140" cy="340" r="18" fill="#fff" stroke="#0ea5e9" stroke-width="7" filter="url(#s)"/><circle cx="348" cy="320" r="25" fill="#fff" stroke="#14b8a6" stroke-width="7" filter="url(#s)"/><circle cx="510" cy="242" r="18" fill="#fff" stroke="#0ea5e9" stroke-width="7" filter="url(#s)"/><circle cx="642" cy="194" r="25" fill="#fff" stroke="#14b8a6" stroke-width="7" filter="url(#s)"/><circle cx="816" cy="279" r="18" fill="#fff" stroke="#0ea5e9" stroke-width="7" filter="url(#s)"/><circle cx="929" cy="157" r="25" fill="#fff" stroke="#14b8a6" stroke-width="7" filter="url(#s)"/><rect x="500" y="235" width="200" height="200" rx="40" fill="#fff" filter="url(#s)"/><path d="M540 300h120M540 350h85M540 400h135" stroke="#0f172a" stroke-width="12" stroke-linecap="round"/><circle cx="675" cy="300" r="15" fill="#0ea5e9"/><text x="78" y="600" font-family="Arial, sans-serif" font-size="96" font-weight="800" fill="#0f172a" opacity=".07">55</text>
    </svg>