<svg xmlns="http://www.w3.org/2000/svg" viewBox="0 0 1200 675" role="img" aria-label="Salamat Healthcare Platform visual">
    <defs>
      <linearGradient id="g" x1="0" y1="0" x2="1" y2="1"><stop offset="0" stop-color="#ffffff"/><stop offset="1" stop-color="#06b6d4" stop-opacity=".12"/></linearGradient>
      <filter id="s" x="-20%" y="-20%" width="140%" height="140%"><feDropShadow dx="0" dy="14" stdDeviation="18" flood-color="#0f172a" flood-opacity=".10"/></filter>
      <pattern id="dots" width="28" height="28" patternUnits="userSpaceOnUse"><circle cx="2" cy="2" r="2" fill="#06b6d4" opacity=".10"/></pattern>
    </defs>
    <rect width="1200" height="675" fill="#e7fbfb"/>
    <rect width="1200" height="675" fill="url(#dots)"/>
    <circle cx="1040" cy="100" r="220" fill="#06b6d4" opacity=".08"/><circle cx="100" cy="580" r="180" fill="#14b8a6" opacity=".08"/>
    <path d="M 161 114 C 251 74, 255 367, 345 327" fill="none" stroke="#06b6d4" stroke-width="8" stroke-linecap="round" opacity=".28"/><path d="M 345 327 C 435 287, 359 210, 449 170" fill="none" stroke="#06b6d4" stroke-width="8" stroke-linecap="round" opacity=".28"/><path d="M 449 170 C 539 130, 515 327, 605 287" fill="none" stroke="#06b6d4" stroke-width="8" stroke-linecap="round" opacity=".28"/><path d="M 605 287 C 695 247, 698 251, 788 211" fill="none" stroke="#06b6d4" stroke-width="8" stroke-linecap="round" opacity=".28"/><path d="M 788 211 C 878 171, 887 285, 977 245" fill="none" stroke="#06b6d4" stroke-width="8" stroke-linecap="round" opacity=".28"/><circle cx="161" cy="114" r="18" fill="#fff" stroke="#06b6d4" stroke-width="7" filter="url(#s)"/><circle cx="345" cy="327" r="25" fill="#fff" stroke="#14b8a6" stroke-width="7" filter="url(#s)"/><circle cx="449" cy="170" r="18" fill="#fff" stroke="#06b6d4" stroke-width="7" filter="url(#s)"/><circle cx="605" cy="287" r="25" fill="#fff" stroke="#14b8a6" stroke-width="7" filter="url(#s)"/><circle cx="788" cy="211" r="18" fill="#fff" stroke="#06b6d4" stroke-width="7" filter="url(#s)"/><circle cx="977" cy="245" r="25" fill="#fff" stroke="#14b8a6" stroke-width="7" filter="url(#s)"/><rect x="520" y="260" width="160" height="160" rx="36" fill="#fff" filter="url(#s)"/><rect x="575" y="292" width="50" height="96" rx="12" fill="#06b6d4"/><rect x="552" y="315" width="96" height="50" rx="12" fill="#06b6d4"/><text x="78" y="600" font-family="Arial, sans-serif" font-size="96" font-weight="800" fill="#0f172a" opacity=".07">84</text>
    </svg>