<svg xmlns="http://www.w3.org/2000/svg" width="1600" height="900" viewBox="0 0 1600 900">
<defs>
 <linearGradient id="bg" x1="0" y1="0" x2="1" y2="1"><stop stop-color="#030712"/><stop offset=".55" stop-color="#071226"/><stop offset="1" stop-color="#0b1730"/></linearGradient>
 <radialGradient id="cyanGlow" cx="0" cy="0" r="1" gradientTransform="translate(1310 150) rotate(135) scale(440)"><stop stop-color="#19d7ff" stop-opacity=".25"/><stop offset="1" stop-color="#19d7ff" stop-opacity="0"/></radialGradient>
 <radialGradient id="goldGlow" cx="0" cy="0" r="1" gradientTransform="translate(220 80) rotate(42) scale(400)"><stop stop-color="#d8b86a" stop-opacity=".20"/><stop offset="1" stop-color="#d8b86a" stop-opacity="0"/></radialGradient>
 <linearGradient id="accent" x1="0" y1="0" x2="1" y2="0"><stop stop-color="#19d7ff"/><stop offset="1" stop-color="#d8b86a"/></linearGradient>
</defs>
<rect width="1600" height="900" fill="url(#bg)"/><rect width="1600" height="900" fill="url(#cyanGlow)"/><rect width="1600" height="900" fill="url(#goldGlow)"/>
<g opacity=".22" stroke="#9defff" fill="none"><ellipse cx="1310" cy="340" rx="310" ry="150" stroke-width="3" transform="rotate(-18 1310 340)"/><ellipse cx="1290" cy="500" rx="220" ry="350" stroke-width="2" transform="rotate(24 1290 500)"/></g>
<g opacity=".28" stroke="#d8b86a" fill="none"><circle cx="1250" cy="590" r="220" stroke-width="3"/></g>
<g stroke="#19d7ff" stroke-opacity=".55" fill="#19d7ff"><path d="M1080 650 1280 410 1440 565 1350 730 1080 650Z" fill="none" stroke-width="2"/><circle cx="1080" cy="650" r="10"/><circle cx="1280" cy="410" r="10"/><circle cx="1440" cy="565" r="10"/><circle cx="1350" cy="730" r="10"/></g>
<g transform="translate(106 92)"><rect x="0" y="0" width="68" height="6" rx="3" fill="url(#accent)"/><text x="0" y="62" font-family="Arial, sans-serif" font-size="25" font-weight="700" letter-spacing="4" fill="#8eefff">EXECUTIVE INSIGHTS</text></g>
<g transform="translate(106 235)"><text font-family="Georgia, serif" font-size="76" font-weight="700" fill="#ffffff"><tspan x="0" y="0">From Digital Projects to</tspan><tspan x="0" y="94">Institutional Capability</tspan></text><text x="0" y="180" font-family="Arial, sans-serif" font-size="34" fill="#bcd0e2">Why technology alone does not create transformation</text><rect x="0" y="225" width="610" height="5" rx="3" fill="url(#accent)"/></g>
<g transform="translate(106 725)"><text x="0" y="0" font-family="Arial, sans-serif" font-size="32" font-weight="800" fill="#ffffff">Mahmoud Salama</text><text x="0" y="47" font-family="Arial, sans-serif" font-size="24" fill="#bcd0e2">Chief Technology &amp; Digital Transformation Officer</text><text x="0" y="84" font-family="Arial, sans-serif" font-size="19" letter-spacing="1.7" fill="#d8b86a">BUILDING SYSTEMS THAT MATTER</text></g>
<g transform="translate(1390 90)"><rect width="110" height="110" rx="30" fill="#0b1730" stroke="#d8b86a" stroke-opacity=".65"/><ellipse cx="55" cy="55" rx="36" ry="20" fill="none" stroke="#19d7ff" stroke-width="2" transform="rotate(-22 55 55)"/><ellipse cx="55" cy="55" rx="29" ry="41" fill="none" stroke="#d8b86a" stroke-opacity=".7" stroke-width="1.6" transform="rotate(27 55 55)"/><text x="55" y="62" text-anchor="middle" font-family="Arial, sans-serif" font-size="22" font-weight="800" fill="#f5e8be">&lt;MS&gt;</text></g>
</svg>